<?xml version="1.0" encoding="UTF-8"?>
<!DOCTYPE svg PUBLIC "-//W3C//DTD SVG 1.1//EN" "http://www.w3.org/Graphics/SVG/1.1/DTD/svg11.dtd">
<svg xmlns="http://www.w3.org/2000/svg" version="1.1" width="200px" height="77px" style="shape-rendering:geometricPrecision; text-rendering:geometricPrecision; image-rendering:optimizeQuality; fill-rule:evenodd; clip-rule:evenodd" xmlns:xlink="http://www.w3.org/1999/xlink">
<g><path style="opacity:0.771" fill="#24441f" d="M 58.5,-0.5 C 59.1667,-0.5 59.8333,-0.5 60.5,-0.5C 60.7118,1.38411 61.7118,2.71745 63.5,3.5C 62.3915,5.2141 63.0582,5.88077 65.5,5.5C 65.67,6.82207 65.3366,7.98873 64.5,9C 67.0578,10.3799 67.0578,11.8799 64.5,13.5C 66.0745,14.6309 67.7412,14.7975 69.5,14C 69.3602,12.4029 69.3602,10.9029 69.5,9.5C 70.5,8.5 71.5,7.5 72.5,6.5C 75.2621,10.7066 77.5954,14.7066 79.5,18.5C 78.91,19.7989 77.91,20.6322 76.5,21C 78.1124,21.7203 79.6124,21.5536 81,20.5C 81.5205,22.2889 81.1871,23.9556 80,25.5C 78.4029,25.3602 76.9029,25.3602 75.5,25.5C 74.7025,25.9569 74.3691,26.6236 74.5,27.5C 73.5,27.5 72.5,27.5 71.5,27.5C 71.38,26.4138 70.7133,25.7472 69.5,25.5C 66.5926,24.9901 63.7592,24.3234 61,23.5C 61.3554,24.9594 61.1888,26.2928 60.5,27.5C 59.5,27.5 58.5,27.5 57.5,27.5C 57.719,26.325 57.3857,25.325 56.5,24.5C 55.0656,25.5884 54.0656,26.9217 53.5,28.5C 53.1667,28.5 52.8333,28.5 52.5,28.5C 51.5084,28.3284 50.8417,28.6618 50.5,29.5C 50.1583,30.3382 49.4916,30.6716 48.5,30.5C 47.5084,30.3284 46.8417,30.6618 46.5,31.5C 45.8333,31.5 45.5,31.8333 45.5,32.5C 44.609,33.1098 43.609,33.4431 42.5,33.5C 42.6567,32.1266 42.49,30.7932 42,29.5C 40.4667,29.9437 38.9667,30.277 37.5,30.5C 36.5,29.5 35.5,28.5 34.5,27.5C 36.1667,26.3333 37.8333,25.1667 39.5,24C 36.5529,23.8882 35.2196,22.3882 35.5,19.5C 39.5841,20.0547 40.2508,19.0547 37.5,16.5C 38.376,15.7492 39.376,15.2492 40.5,15C 36.3184,12.8801 36.6517,11.5468 41.5,11C 40.6919,10.6924 40.0253,10.1924 39.5,9.5C 41.4586,8.25189 42.9586,6.58522 44,4.5C 44.374,6.86712 45.5407,8.70045 47.5,10C 47.0946,10.9454 46.428,11.6121 45.5,12C 46.938,12.2189 48.2713,12.7189 49.5,13.5C 48.4937,14.3957 48.4937,15.0623 49.5,15.5C 51.7759,14.7868 54.1093,14.2868 56.5,14C 54.4267,13.8817 53.0933,12.8817 52.5,11C 53.7073,9.69981 54.3739,8.19981 54.5,6.5C 55.552,6.64945 56.552,6.48278 57.5,6C 56.0267,5.29044 55.3601,4.12377 55.5,2.5C 56.5,2.5 57.5,2.5 58.5,2.5C 58.5,1.5 58.5,0.5 58.5,-0.5 Z M 50.5,16.5 C 51.5802,18.3606 52.9136,19.0273 54.5,18.5C 53.277,19.6139 51.9437,19.7805 50.5,19C 49.4019,18.2303 49.4019,17.397 50.5,16.5 Z M 66.5,19.5 C 64.0172,19.27 63.5172,18.6034 65,17.5C 66.0299,17.8361 66.5299,18.5028 66.5,19.5 Z M 48.5,24.5 C 50.0524,24.4189 51.7191,24.2522 53.5,24C 51.9769,25.7884 50.3102,25.9551 48.5,24.5 Z M 71.5,27.5 C 67.7938,26.4612 64.1271,26.4612 60.5,27.5C 61.1888,26.2928 61.3554,24.9594 61,23.5C 63.7592,24.3234 66.5926,24.9901 69.5,25.5C 70.7133,25.7472 71.38,26.4138 71.5,27.5 Z"/></g>
<g><path style="opacity:0.157" fill="#c0c8ba" d="M 167.5,20.5 C 167.167,20.5 166.833,20.5 166.5,20.5C 166.5,19.8333 166.5,19.1667 166.5,18.5C 167.077,17.2267 167.743,17.2267 168.5,18.5C 168.137,19.1835 167.804,19.8501 167.5,20.5 Z"/></g>
<g><path style="opacity:1" fill="#cfd6ce" d="M 46.5,18.5 C 48.337,18.6395 48.6704,19.3061 47.5,20.5C 46.7025,20.0431 46.3691,19.3764 46.5,18.5 Z"/></g>
<g><path style="opacity:0.361" fill="#365028" d="M 156.5,17.5 C 157.458,17.9528 158.292,18.6195 159,19.5C 160.085,18.7069 161.252,18.0402 162.5,17.5C 162.593,18.4719 162.926,19.4719 163.5,20.5C 162.89,21.391 162.557,22.391 162.5,23.5C 162.5,24.1667 162.5,24.8333 162.5,25.5C 162.167,25.5 161.833,25.5 161.5,25.5C 161.662,23.4727 161.495,21.4727 161,19.5C 159.961,20.7101 158.794,21.7101 157.5,22.5C 157.5,22.1667 157.5,21.8333 157.5,21.5C 157.167,20.1667 156.833,18.8333 156.5,17.5 Z"/></g>
<g><path style="opacity:1" fill="#76913e" d="M 150.5,17.5 C 151.167,18.5 151.833,19.5 152.5,20.5C 152.5,20.8333 152.5,21.1667 152.5,21.5C 151.5,21.5 150.5,21.5 149.5,21.5C 149.167,21.5 148.833,21.5 148.5,21.5C 148.215,19.712 148.548,18.0453 149.5,16.5C 150.107,16.6236 150.44,16.9569 150.5,17.5 Z"/></g>
<g><path style="opacity:1" fill="#86a33d" d="M 156.5,17.5 C 156.833,18.8333 157.167,20.1667 157.5,21.5C 157.167,21.5 156.833,21.5 156.5,21.5C 155.167,21.5 154.5,20.8333 154.5,19.5C 154.281,18.325 154.614,17.325 155.5,16.5C 156.107,16.6236 156.44,16.9569 156.5,17.5 Z"/></g>
<g><path style="opacity:0.695" fill="#22421e" d="M 134.5,28.5 C 131.843,28.838 129.51,28.1713 127.5,26.5C 126.749,27.376 126.249,28.376 126,29.5C 124.471,28.2713 123.304,26.7713 122.5,25C 118.736,24.1341 115.069,22.9674 111.5,21.5C 110.893,21.6236 110.56,21.9569 110.5,22.5C 109.185,21.5244 107.852,20.5244 106.5,19.5C 103.462,24.9185 100.462,30.2519 97.5,35.5C 99.2421,29.562 101.742,23.8953 105,18.5C 105.725,17.9415 106.558,17.6082 107.5,17.5C 112.167,19.1667 116.833,20.8333 121.5,22.5C 124.493,21.4782 127.16,21.4782 129.5,22.5C 131.516,24.2547 133.183,26.2547 134.5,28.5 Z"/></g>
<g><path style="opacity:1" fill="#77923e" d="M 166.5,18.5 C 166.5,19.1667 166.5,19.8333 166.5,20.5C 166.446,22.632 165.446,23.9653 163.5,24.5C 163.5,23.8333 163.167,23.5 162.5,23.5C 162.557,22.391 162.89,21.391 163.5,20.5C 163.973,19.0937 164.973,18.427 166.5,18.5 Z"/></g>
<g><path style="opacity:1" fill="#cddba0" d="M 110.5,22.5 C 111.389,24.736 112.722,26.736 114.5,28.5C 110.398,30.2999 106.232,31.9665 102,33.5C 100.69,34.1301 99.8565,35.1301 99.5,36.5C 99.1667,36.5 98.8333,36.5 98.5,36.5C 98.1667,36.5 97.8333,36.5 97.5,36.5C 97.5,36.1667 97.5,35.8333 97.5,35.5C 100.462,30.2519 103.462,24.9185 106.5,19.5C 107.852,20.5244 109.185,21.5244 110.5,22.5 Z"/></g>
<g><path style="opacity:0.008" fill="#385033" d="M 166.5,20.5 C 166.833,20.5 167.167,20.5 167.5,20.5C 167.5,21.5 167.5,22.5 167.5,23.5C 169.643,24.8089 172.643,25.8089 176.5,26.5C 176.145,27.5223 175.478,28.189 174.5,28.5C 174.38,27.4138 173.713,26.7472 172.5,26.5C 170.927,26.7517 169.594,27.4183 168.5,28.5C 169.555,24.1009 168.222,23.4342 164.5,26.5C 164.5,25.8333 164.167,25.5 163.5,25.5C 163.5,25.1667 163.5,24.8333 163.5,24.5C 165.446,23.9653 166.446,22.632 166.5,20.5 Z"/></g>
<g><path style="opacity:0.62" fill="#7e9743" d="M 141.5,26.5 C 140.662,26.1583 140.328,25.4916 140.5,24.5C 141.708,23.218 143.042,23.218 144.5,24.5C 143.995,25.9185 142.995,26.5852 141.5,26.5 Z"/></g>
<g><path style="opacity:1" fill="#7c9749" d="M 161.5,25.5 C 160.391,25.5569 159.391,25.8902 158.5,26.5C 158.5,25.8333 158.167,25.5 157.5,25.5C 157.5,24.8333 157.167,24.5 156.5,24.5C 156.5,23.8333 156.5,23.1667 156.5,22.5C 156.833,22.5 157.167,22.5 157.5,22.5C 158.794,21.7101 159.961,20.7101 161,19.5C 161.495,21.4727 161.662,23.4727 161.5,25.5 Z"/></g>
<g><path style="opacity:1" fill="#97af61" d="M 168.5,28.5 C 167.395,29.6005 166.062,30.2671 164.5,30.5C 164.5,29.8333 164.167,29.5 163.5,29.5C 163.631,28.7611 163.464,28.0944 163,27.5C 162.802,29.3817 162.302,31.0484 161.5,32.5C 161.784,30.5853 161.451,28.9187 160.5,27.5C 160.833,26.8333 161.167,26.1667 161.5,25.5C 161.833,25.5 162.167,25.5 162.5,25.5C 162.833,25.5 163.167,25.5 163.5,25.5C 164.167,25.5 164.5,25.8333 164.5,26.5C 168.222,23.4342 169.555,24.1009 168.5,28.5 Z"/></g>
<g><path style="opacity:1" fill="#9cb947" d="M 155.5,24.5 C 155.5,25.8333 155.5,27.1667 155.5,28.5C 155.5,28.8333 155.5,29.1667 155.5,29.5C 155.167,29.5 154.833,29.5 154.5,29.5C 152.685,27.5315 152.185,25.1982 153,22.5C 153.708,23.3805 154.542,24.0472 155.5,24.5 Z"/></g>
<g><path style="opacity:1" fill="#a6bc6c" d="M 174.5,28.5 C 172.983,28.5106 171.816,29.1772 171,30.5C 170.617,29.944 170.117,29.6107 169.5,29.5C 169.167,29.5 168.833,29.5 168.5,29.5C 168.5,29.1667 168.5,28.8333 168.5,28.5C 169.594,27.4183 170.927,26.7517 172.5,26.5C 173.713,26.7472 174.38,27.4138 174.5,28.5 Z"/></g>
<g><path style="opacity:0.974" fill="#8bae3d" d="M 71.5,27.5 C 72.5,27.5 73.5,27.5 74.5,27.5C 82.6969,29.1216 90.3635,32.1216 97.5,36.5C 97.8333,36.5 98.1667,36.5 98.5,36.5C 98.5,37.1667 98.8333,37.5 99.5,37.5C 99.8333,37.5 100.167,37.5 100.5,37.5C 100.5,38.1667 100.833,38.5 101.5,38.5C 101.833,38.5 102.167,38.5 102.5,38.5C 102.5,39.1667 102.833,39.5 103.5,39.5C 103.833,39.5 104.167,39.5 104.5,39.5C 104.5,40.1667 104.833,40.5 105.5,40.5C 105.833,40.5 106.167,40.5 106.5,40.5C 106.5,41.1667 106.833,41.5 107.5,41.5C 107.833,41.5 108.167,41.5 108.5,41.5C 108.5,42.1667 108.833,42.5 109.5,42.5C 109.833,42.5 110.167,42.5 110.5,42.5C 110.5,43.1667 110.833,43.5 111.5,43.5C 111.833,43.5 112.167,43.5 112.5,43.5C 112.842,44.3382 113.508,44.6716 114.5,44.5C 114.833,44.5 115.167,44.5 115.5,44.5C 115.5,45.1667 115.833,45.5 116.5,45.5C 116.833,45.5 117.167,45.5 117.5,45.5C 117.842,46.3382 118.508,46.6716 119.5,46.5C 119.833,46.5 120.167,46.5 120.5,46.5C 120.842,47.3382 121.508,47.6716 122.5,47.5C 122.833,47.5 123.167,47.5 123.5,47.5C 123.842,48.3382 124.508,48.6716 125.5,48.5C 125.833,48.5 126.167,48.5 126.5,48.5C 126.842,49.3382 127.508,49.6716 128.5,49.5C 128.833,49.5 129.167,49.5 129.5,49.5C 129.833,49.5 130.167,49.5 130.5,49.5C 131.209,50.404 132.209,50.7373 133.5,50.5C 133.833,50.5 134.167,50.5 134.5,50.5C 135.209,51.404 136.209,51.7373 137.5,51.5C 137.833,51.5 138.167,51.5 138.5,51.5C 139.568,52.4345 140.901,52.7678 142.5,52.5C 142.833,52.5 143.167,52.5 143.5,52.5C 147.267,53.7947 151.267,54.4613 155.5,54.5C 155.5,55.1667 155.833,55.5 156.5,55.5C 157.5,55.5 158.5,55.5 159.5,55.5C 165.946,56.7371 172.28,58.0705 178.5,59.5C 143.086,57.4792 108.419,51.3125 74.5,41C 69.5,40.3333 64.5,40.3333 59.5,41C 54.608,42.8944 49.9413,45.2277 45.5,48C 44,48.1667 42.5,48.3333 41,48.5C 35.303,47.8672 29.803,46.5339 24.5,44.5C 28.5757,42.2774 32.909,40.1107 37.5,38C 39.6175,36.9509 41.2842,35.4509 42.5,33.5C 43.609,33.4431 44.609,33.1098 45.5,32.5C 46.1667,32.5 46.5,32.1667 46.5,31.5C 47.4916,31.6716 48.1583,31.3382 48.5,30.5C 49.4916,30.6716 50.1583,30.3382 50.5,29.5C 51.4916,29.6716 52.1583,29.3382 52.5,28.5C 52.8333,28.5 53.1667,28.5 53.5,28.5C 54.9587,28.5674 56.2921,28.2341 57.5,27.5C 58.5,27.5 59.5,27.5 60.5,27.5C 64.1271,26.4612 67.7938,26.4612 71.5,27.5 Z"/></g>
<g><path style="opacity:0.016" fill="#314c29" d="M 150.5,17.5 C 152.062,17.7329 153.395,18.3995 154.5,19.5C 154.5,20.8333 155.167,21.5 156.5,21.5C 156.5,21.8333 156.5,22.1667 156.5,22.5C 155.662,22.8417 155.328,23.5084 155.5,24.5C 154.542,24.0472 153.708,23.3805 153,22.5C 152.185,25.1982 152.685,27.5315 154.5,29.5C 153.884,30.2022 153.884,31.2022 154.5,32.5C 149.904,29.7673 144.904,28.434 139.5,28.5C 140.167,27.8333 140.833,27.1667 141.5,26.5C 142.995,26.5852 143.995,25.9185 144.5,24.5C 143.042,23.218 141.708,23.218 140.5,24.5C 139.957,24.44 139.624,24.1067 139.5,23.5C 141.045,22.5481 142.712,22.2148 144.5,22.5C 144.351,18.9993 145.351,18.6659 147.5,21.5C 145.744,22.5521 145.077,24.2188 145.5,26.5C 149.023,27.7721 150.357,26.7721 149.5,23.5C 150.833,23.1667 150.833,22.8333 149.5,22.5C 149.5,22.1667 149.5,21.8333 149.5,21.5C 150.5,21.5 151.5,21.5 152.5,21.5C 153.833,21.1667 153.833,20.8333 152.5,20.5C 151.833,19.5 151.167,18.5 150.5,17.5 Z"/></g>
<g><path style="opacity:0.851" fill="#7a9937" d="M 147.5,21.5 C 147.833,21.5 148.167,21.5 148.5,21.5C 148.5,22.1667 148.833,22.5 149.5,22.5C 149.5,22.8333 149.5,23.1667 149.5,23.5C 150.357,26.7721 149.023,27.7721 145.5,26.5C 145.077,24.2188 145.744,22.5521 147.5,21.5 Z"/></g>
<g><path style="opacity:0.824" fill="#314c29" d="M 155.5,24.5 C 155.833,24.5 156.167,24.5 156.5,24.5C 157.167,24.5 157.5,24.8333 157.5,25.5C 157.461,27.2239 157.794,27.5573 158.5,26.5C 159.391,25.8902 160.391,25.5569 161.5,25.5C 161.167,26.1667 160.833,26.8333 160.5,27.5C 159.5,28.1667 158.5,28.8333 157.5,29.5C 157.167,29.5 156.833,29.5 156.5,29.5C 156.5,28.8333 156.167,28.5 155.5,28.5C 155.5,27.1667 155.5,25.8333 155.5,24.5 Z"/></g>
<g><path style="opacity:1" fill="#99ba38" d="M 110.5,22.5 C 110.56,21.9569 110.893,21.6236 111.5,21.5C 115.069,22.9674 118.736,24.1341 122.5,25C 123.304,26.7713 124.471,28.2713 126,29.5C 126.249,28.376 126.749,27.376 127.5,26.5C 129.51,28.1713 131.843,28.838 134.5,28.5C 135.891,30.8903 137.891,32.5569 140.5,33.5C 140.833,33.5 141.167,33.5 141.5,33.5C 141.5,33.8333 141.5,34.1667 141.5,34.5C 141.953,35.4584 142.619,36.2917 143.5,37C 143.272,37.3988 142.938,37.5654 142.5,37.5C 134.705,35.5131 127.039,33.0131 119.5,30C 116.36,27.695 113.36,25.195 110.5,22.5 Z"/></g>
<g><path style="opacity:1" fill="#718c40" d="M 165.5,32.5 C 166.919,31.5489 168.585,31.2155 170.5,31.5C 170.833,32.8333 171.167,32.8333 171.5,31.5C 171.833,31.5 172.167,31.5 172.5,31.5C 172.918,32.2216 173.584,32.7216 174.5,33C 173.244,33.4169 172.577,34.2502 172.5,35.5C 171.833,35.1667 171.167,34.8333 170.5,34.5C 170.5,33.8333 170.167,33.5 169.5,33.5C 169.167,33.5 168.833,33.5 168.5,33.5C 167.791,32.596 166.791,32.2627 165.5,32.5 Z"/></g>
<g><path style="opacity:1" fill="#aac656" d="M 172.5,31.5 C 174.167,31.5 175.833,31.5 177.5,31.5C 180.167,32.1667 180.167,32.8333 177.5,33.5C 175.716,33.8925 174.05,34.5592 172.5,35.5C 172.577,34.2502 173.244,33.4169 174.5,33C 173.584,32.7216 172.918,32.2216 172.5,31.5 Z"/></g>
<g><path style="opacity:1" fill="#aac74f" d="M 165.5,32.5 C 166.791,32.2627 167.791,32.596 168.5,33.5C 166.833,34.8333 165.167,36.1667 163.5,37.5C 161.745,34.9102 162.412,33.2435 165.5,32.5 Z"/></g>
<g><path style="opacity:1" fill="#d0dea3" d="M 121.5,32.5 C 123.031,33.9245 122.698,34.5912 120.5,34.5C 115.105,35.1873 110.105,36.8539 105.5,39.5C 105.167,39.5 104.833,39.5 104.5,39.5C 104.167,39.5 103.833,39.5 103.5,39.5C 102.833,39.5 102.5,39.1667 102.5,38.5C 102.167,38.5 101.833,38.5 101.5,38.5C 100.833,38.5 100.5,38.1667 100.5,37.5C 100.167,37.5 99.8333,37.5 99.5,37.5C 99.5,37.1667 99.5,36.8333 99.5,36.5C 105.434,35.2994 111.101,33.2994 116.5,30.5C 118.075,31.4565 119.742,32.1231 121.5,32.5 Z"/></g>
<g><path style="opacity:1" fill="#a2b380" d="M 121.5,32.5 C 129.666,34.7698 137.333,37.7698 144.5,41.5C 136.283,39.5346 128.283,37.2012 120.5,34.5C 122.698,34.5912 123.031,33.9245 121.5,32.5 Z"/></g>
<g><path style="opacity:0.369" fill="#455c3d" d="M 168.5,33.5 C 168.833,33.5 169.167,33.5 169.5,33.5C 169.167,34.1667 168.833,34.8333 168.5,35.5C 169.492,35.6716 170.158,35.3382 170.5,34.5C 171.167,34.8333 171.833,35.1667 172.5,35.5C 174.05,34.5592 175.716,33.8925 177.5,33.5C 174.856,37.8101 171.522,41.4768 167.5,44.5C 166.167,44.5 164.833,44.5 163.5,44.5C 163.5,44.1667 163.5,43.8333 163.5,43.5C 164.791,43.7373 165.791,43.404 166.5,42.5C 174.617,38.1014 174.283,36.768 165.5,38.5C 164.508,38.6716 163.842,38.3382 163.5,37.5C 165.167,36.1667 166.833,34.8333 168.5,33.5 Z M 169.5,33.5 C 170.167,33.5 170.5,33.8333 170.5,34.5C 170.158,35.3382 169.492,35.6716 168.5,35.5C 168.833,34.8333 169.167,34.1667 169.5,33.5 Z"/></g>
<g><path style="opacity:1" fill="#b3d155" d="M 166.5,42.5 C 166.167,42.5 165.833,42.5 165.5,42.5C 166.574,41.1154 167.907,39.9487 169.5,39C 168.181,38.805 166.847,38.9717 165.5,39.5C 165.5,39.1667 165.5,38.8333 165.5,38.5C 174.283,36.768 174.617,38.1014 166.5,42.5 Z"/></g>
<g><path style="opacity:1" fill="#1d3d19" d="M 120.5,34.5 C 128.283,37.2012 136.283,39.5346 144.5,41.5C 144.842,42.3382 145.508,42.6716 146.5,42.5C 146.5,42.8333 146.5,43.1667 146.5,43.5C 145.5,43.5 144.5,43.5 143.5,43.5C 142.833,43.5 142.167,43.5 141.5,43.5C 140.833,44.1667 140.167,44.8333 139.5,45.5C 139.573,43.9731 138.906,42.9731 137.5,42.5C 136.609,41.8902 135.609,41.5569 134.5,41.5C 134.167,41.5 133.833,41.5 133.5,41.5C 132.833,42.1667 132.167,42.8333 131.5,43.5C 131.443,42.391 131.11,41.391 130.5,40.5C 129.432,39.5655 128.099,39.2322 126.5,39.5C 126.167,39.5 125.833,39.5 125.5,39.5C 124.791,38.596 123.791,38.2627 122.5,38.5C 117.474,37.6711 112.808,38.6711 108.5,41.5C 108.167,41.5 107.833,41.5 107.5,41.5C 106.833,41.5 106.5,41.1667 106.5,40.5C 106.167,40.5 105.833,40.5 105.5,40.5C 105.5,40.1667 105.5,39.8333 105.5,39.5C 110.105,36.8539 115.105,35.1873 120.5,34.5 Z"/></g>
<g><path style="opacity:0.624" fill="#314e28" d="M 110.5,22.5 C 113.36,25.195 116.36,27.695 119.5,30C 127.039,33.0131 134.705,35.5131 142.5,37.5C 142.735,38.0967 143.235,38.4301 144,38.5C 145.5,38 147,37.5 148.5,37C 147.619,36.2917 146.953,35.4584 146.5,34.5C 147.404,33.791 147.737,32.791 147.5,31.5C 148.158,33.5305 149.491,35.8639 151.5,38.5C 150.817,39.6441 151.151,39.6441 152.5,38.5C 152.328,37.5084 152.662,36.8417 153.5,36.5C 154.32,38.1401 155.153,39.8068 156,41.5C 156.186,38.9644 156.686,36.631 157.5,34.5C 157.833,34.5 158.167,34.5 158.5,34.5C 158.5,36.5 158.5,38.5 158.5,40.5C 160.441,38.6841 161.108,36.6841 160.5,34.5C 160.5,34.1667 160.5,33.8333 160.5,33.5C 161.167,33.5 161.5,33.1667 161.5,32.5C 162.302,31.0484 162.802,29.3817 163,27.5C 163.464,28.0944 163.631,28.7611 163.5,29.5C 163.461,31.2239 163.794,31.5573 164.5,30.5C 166.062,30.2671 167.395,29.6005 168.5,28.5C 168.5,28.8333 168.5,29.1667 168.5,29.5C 168.833,30.8333 169.167,30.8333 169.5,29.5C 170.117,29.6107 170.617,29.944 171,30.5C 171.816,29.1772 172.983,28.5106 174.5,28.5C 174.389,29.1174 174.056,29.6174 173.5,30C 175.058,30.21 176.391,30.71 177.5,31.5C 175.833,31.5 174.167,31.5 172.5,31.5C 172.167,31.5 171.833,31.5 171.5,31.5C 171.167,31.5 170.833,31.5 170.5,31.5C 168.585,31.2155 166.919,31.5489 165.5,32.5C 162.412,33.2435 161.745,34.9102 163.5,37.5C 159.256,43.0111 159.923,43.6778 165.5,39.5C 166.847,38.9717 168.181,38.805 169.5,39C 167.907,39.9487 166.574,41.1154 165.5,42.5C 164.508,42.3284 163.842,42.6618 163.5,43.5C 162.833,43.5 162.5,43.8333 162.5,44.5C 162.577,45.7498 163.244,46.5831 164.5,47C 163.058,47.3768 162.058,48.2101 161.5,49.5C 159.72,50.9899 159.054,52.9899 159.5,55.5C 158.5,55.5 157.5,55.5 156.5,55.5C 155.833,55.5 155.5,55.1667 155.5,54.5C 155.968,51.0577 154.802,48.391 152,46.5C 150.218,50.1528 148.051,50.4862 145.5,47.5C 146.5,47.5 147.5,47.5 148.5,47.5C 149.376,47.6309 150.043,47.2975 150.5,46.5C 149.271,45.7189 147.938,45.2189 146.5,45C 150.449,44.1932 150.449,43.6932 146.5,43.5C 146.5,43.1667 146.5,42.8333 146.5,42.5C 146.56,41.9569 146.893,41.6236 147.5,41.5C 149.497,42.7474 151.497,43.5808 153.5,44C 151.017,40.0393 148.017,39.206 144.5,41.5C 137.333,37.7698 129.666,34.7698 121.5,32.5C 119.742,32.1231 118.075,31.4565 116.5,30.5C 111.101,33.2994 105.434,35.2994 99.5,36.5C 99.8565,35.1301 100.69,34.1301 102,33.5C 106.232,31.9665 110.398,30.2999 114.5,28.5C 112.722,26.736 111.389,24.736 110.5,22.5 Z M 158.5,34.5 C 159.167,34.5 159.833,34.5 160.5,34.5C 161.108,36.6841 160.441,38.6841 158.5,40.5C 158.5,38.5 158.5,36.5 158.5,34.5 Z M 155.5,32.5 C 156.5,32.8333 157.167,33.5 157.5,34.5C 156.686,36.631 156.186,38.9644 156,41.5C 155.153,39.8068 154.32,38.1401 153.5,36.5C 155.176,35.8166 155.843,34.4832 155.5,32.5 Z M 154.5,29.5 C 154.833,29.5 155.167,29.5 155.5,29.5C 155.5,30.5 155.5,31.5 155.5,32.5C 155.167,32.5 154.833,32.5 154.5,32.5C 153.884,31.2022 153.884,30.2022 154.5,29.5 Z M 160.5,45.5 C 161.773,46.0768 161.773,46.7435 160.5,47.5C 159.537,47.0302 159.537,46.3635 160.5,45.5 Z"/></g>
<g><path style="opacity:1" fill="#8ba35c" d="M 141.5,34.5 C 141.833,34.5 142.167,34.5 142.5,34.5C 143.833,34.5 145.167,34.5 146.5,34.5C 146.953,35.4584 147.619,36.2917 148.5,37C 147,37.5 145.5,38 144,38.5C 143.235,38.4301 142.735,38.0967 142.5,37.5C 142.938,37.5654 143.272,37.3988 143.5,37C 142.619,36.2917 141.953,35.4584 141.5,34.5 Z"/></g>
<g><path style="opacity:0.024" fill="#2b4529" d="M 146.5,31.5 C 146.5,32.5 146.5,33.5 146.5,34.5C 145.167,34.5 143.833,34.5 142.5,34.5C 142.5,33.8333 142.167,33.5 141.5,33.5C 141.5,33.1667 141.5,32.8333 141.5,32.5C 143.292,32.634 144.958,32.3007 146.5,31.5 Z"/></g>
<g><path style="opacity:1" fill="#758e49" d="M 155.5,29.5 C 155.833,29.5 156.167,29.5 156.5,29.5C 156.833,29.5 157.167,29.5 157.5,29.5C 158.819,29.9437 159.819,31.2771 160.5,33.5C 160.5,33.8333 160.5,34.1667 160.5,34.5C 159.833,34.5 159.167,34.5 158.5,34.5C 158.167,34.5 157.833,34.5 157.5,34.5C 157.167,33.5 156.5,32.8333 155.5,32.5C 155.5,31.5 155.5,30.5 155.5,29.5 Z"/></g>
<g><path style="opacity:0.106" fill="#284425" d="M 134.5,28.5 C 136.167,29.8333 137.833,29.8333 139.5,28.5C 139.733,30.0618 140.4,31.3951 141.5,32.5C 140.833,32.5 140.5,32.8333 140.5,33.5C 137.891,32.5569 135.891,30.8903 134.5,28.5 Z"/></g>
<g><path style="opacity:1" fill="#acca4f" d="M 160.5,27.5 C 161.451,28.9187 161.784,30.5853 161.5,32.5C 161.5,33.1667 161.167,33.5 160.5,33.5C 159.819,31.2771 158.819,29.9437 157.5,29.5C 158.5,28.8333 159.5,28.1667 160.5,27.5 Z"/></g>
<g><path style="opacity:1" fill="#8daa47" d="M 139.5,28.5 C 144.904,28.434 149.904,29.7673 154.5,32.5C 154.833,32.5 155.167,32.5 155.5,32.5C 155.843,34.4832 155.176,35.8166 153.5,36.5C 152.662,36.8417 152.328,37.5084 152.5,38.5C 152.167,38.5 151.833,38.5 151.5,38.5C 149.491,35.8639 148.158,33.5305 147.5,31.5C 147.167,31.5 146.833,31.5 146.5,31.5C 144.958,32.3007 143.292,32.634 141.5,32.5C 140.4,31.3951 139.733,30.0618 139.5,28.5 Z"/></g>
<g><path style="opacity:1" fill="#d4e1a7" d="M 122.5,38.5 C 123.299,41.4299 123.632,44.4299 123.5,47.5C 123.167,47.5 122.833,47.5 122.5,47.5C 122.158,46.6618 121.492,46.3284 120.5,46.5C 120.167,46.5 119.833,46.5 119.5,46.5C 119.158,45.6618 118.492,45.3284 117.5,45.5C 117.167,45.5 116.833,45.5 116.5,45.5C 115.833,45.5 115.5,45.1667 115.5,44.5C 115.167,44.5 114.833,44.5 114.5,44.5C 114.158,43.6618 113.492,43.3284 112.5,43.5C 112.167,43.5 111.833,43.5 111.5,43.5C 110.833,43.5 110.5,43.1667 110.5,42.5C 110.167,42.5 109.833,42.5 109.5,42.5C 108.833,42.5 108.5,42.1667 108.5,41.5C 112.808,38.6711 117.474,37.6711 122.5,38.5 Z"/></g>
<g><path style="opacity:0.994" fill="#23431f" d="M 178.5,59.5 C 182.446,61.1623 186.446,61.4956 190.5,60.5C 193.43,61.299 196.43,61.6323 199.5,61.5C 199.5,62.1667 199.5,62.8333 199.5,63.5C 184.5,63.5 169.5,63.5 154.5,63.5C 124.748,59.946 94.7478,58.446 64.5,59C 58.0275,60.1874 51.6942,61.3541 45.5,62.5C 34.582,62.3026 23.9153,60.6359 13.5,57.5C 12.5,55.8333 11.1667,54.5 9.5,53.5C 9.5,53.1667 9.5,52.8333 9.5,52.5C 9.33003,51.1779 9.66337,50.0113 10.5,49C 14.8918,46.5915 19.5584,45.0915 24.5,44.5C 29.803,46.5339 35.303,47.8672 41,48.5C 42.5,48.3333 44,48.1667 45.5,48C 49.9413,45.2277 54.608,42.8944 59.5,41C 64.5,40.3333 69.5,40.3333 74.5,41C 108.419,51.3125 143.086,57.4792 178.5,59.5 Z"/></g>
<g><path style="opacity:1" fill="#657d51" d="M 122.5,38.5 C 123.791,38.2627 124.791,38.596 125.5,39.5C 125.014,41.9517 125.014,44.6183 125.5,47.5C 124.833,47.5 124.167,47.5 123.5,47.5C 123.632,44.4299 123.299,41.4299 122.5,38.5 Z"/></g>
<g><path style="opacity:1" fill="#fafcc9" d="M 133.5,41.5 C 133.833,41.5 134.167,41.5 134.5,41.5C 135.403,44.3915 135.736,47.3915 135.5,50.5C 135.167,50.5 134.833,50.5 134.5,50.5C 134.167,50.5 133.833,50.5 133.5,50.5C 133.5,50.1667 133.5,49.8333 133.5,49.5C 133.5,46.8333 133.5,44.1667 133.5,41.5 Z"/></g>
<g><path style="opacity:1" fill="#fbfdc7" d="M 130.5,40.5 C 131.11,41.391 131.443,42.391 131.5,43.5C 131.5,45.5 131.5,47.5 131.5,49.5C 131.167,49.5 130.833,49.5 130.5,49.5C 130.167,49.5 129.833,49.5 129.5,49.5C 129.19,46.2869 129.523,43.2869 130.5,40.5 Z"/></g>
<g><path style="opacity:0.938" fill="#f9fbc8" d="M 137.5,42.5 C 138.906,42.9731 139.573,43.9731 139.5,45.5C 139.5,47.5 139.5,49.5 139.5,51.5C 139.167,51.5 138.833,51.5 138.5,51.5C 138.167,51.5 137.833,51.5 137.5,51.5C 137.5,51.1667 137.5,50.8333 137.5,50.5C 137.5,47.8333 137.5,45.1667 137.5,42.5 Z"/></g>
<g><path style="opacity:0.961" fill="#96b53d" d="M 143.5,43.5 C 144.5,43.5 145.5,43.5 146.5,43.5C 150.449,43.6932 150.449,44.1932 146.5,45C 147.938,45.2189 149.271,45.7189 150.5,46.5C 150.043,47.2975 149.376,47.6309 148.5,47.5C 147.081,46.5489 145.415,46.2155 143.5,46.5C 143.5,45.5 143.5,44.5 143.5,43.5 Z"/></g>
<g><path style="opacity:1" fill="#f1f6c0" d="M 125.5,39.5 C 125.833,39.5 126.167,39.5 126.5,39.5C 127.403,42.3915 127.736,45.3915 127.5,48.5C 127.167,48.5 126.833,48.5 126.5,48.5C 126.167,48.5 125.833,48.5 125.5,48.5C 125.5,48.1667 125.5,47.8333 125.5,47.5C 125.014,44.6183 125.014,41.9517 125.5,39.5 Z"/></g>
<g><path style="opacity:1" fill="#6f8659" d="M 126.5,39.5 C 128.099,39.2322 129.432,39.5655 130.5,40.5C 129.523,43.2869 129.19,46.2869 129.5,49.5C 129.167,49.5 128.833,49.5 128.5,49.5C 128.5,48.8333 128.167,48.5 127.5,48.5C 127.736,45.3915 127.403,42.3915 126.5,39.5 Z"/></g>
<g><path style="opacity:1" fill="#748b5d" d="M 133.5,41.5 C 133.5,44.1667 133.5,46.8333 133.5,49.5C 132.833,49.5 132.167,49.5 131.5,49.5C 131.5,47.5 131.5,45.5 131.5,43.5C 132.167,42.8333 132.833,42.1667 133.5,41.5 Z"/></g>
<g><path style="opacity:1" fill="#768d5f" d="M 141.5,43.5 C 141.5,46.1667 141.5,48.8333 141.5,51.5C 140.833,51.5 140.167,51.5 139.5,51.5C 139.5,49.5 139.5,47.5 139.5,45.5C 140.167,44.8333 140.833,44.1667 141.5,43.5 Z"/></g>
<g><path style="opacity:1" fill="#99b356" d="M 162.5,44.5 C 162.833,44.5 163.167,44.5 163.5,44.5C 164.833,44.5 166.167,44.5 167.5,44.5C 169.552,45.0527 169.885,46.0527 168.5,47.5C 166.079,47.8782 163.746,48.5448 161.5,49.5C 162.058,48.2101 163.058,47.3768 164.5,47C 163.244,46.5831 162.577,45.7498 162.5,44.5 Z"/></g>
<g><path style="opacity:1" fill="#6c8457" d="M 134.5,41.5 C 135.609,41.5569 136.609,41.8902 137.5,42.5C 137.5,45.1667 137.5,47.8333 137.5,50.5C 136.833,50.5 136.167,50.5 135.5,50.5C 135.736,47.3915 135.403,44.3915 134.5,41.5 Z"/></g>
<g><path style="opacity:1" fill="#dbe4ad" d="M 141.5,43.5 C 142.167,43.5 142.833,43.5 143.5,43.5C 143.5,44.5 143.5,45.5 143.5,46.5C 145.415,46.2155 147.081,46.5489 148.5,47.5C 147.5,47.5 146.5,47.5 145.5,47.5C 144.833,49.1667 144.167,50.8333 143.5,52.5C 143.167,52.5 142.833,52.5 142.5,52.5C 142.5,51.8333 142.167,51.5 141.5,51.5C 141.5,48.8333 141.5,46.1667 141.5,43.5 Z"/></g>
<g><path style="opacity:0.063" fill="#31472f" d="M 168.5,47.5 C 166.618,50.218 164.285,50.8847 161.5,49.5C 163.746,48.5448 166.079,47.8782 168.5,47.5 Z"/></g>
<g><path style="opacity:0.681" fill="#91b23b" d="M 9.5,52.5 C 9.5,52.8333 9.5,53.1667 9.5,53.5C 9.83333,55.8333 11.1667,57.1667 13.5,57.5C 14.347,58.9663 15.6803,59.7996 17.5,60C 28.6787,62.6473 40.0121,63.814 51.5,63.5C 51.8333,63.5 52.1667,63.5 52.5,63.5C 98.347,64.1814 144.347,64.8481 190.5,65.5C 191.5,65.8333 192.5,66.1667 193.5,66.5C 191.5,66.8333 189.5,67.1667 187.5,67.5C 136.83,67.5353 86.1636,67.0353 35.5,66C 26.4134,65.7093 17.7468,63.7093 9.5,60C 7.99035,58.6487 6.99035,56.982 6.5,55C 6.74831,53.2509 7.74831,52.4176 9.5,52.5 Z"/></g>
<g><path style="opacity:0.49" fill="#709235" d="M 178.5,59.5 C 182.519,59.6458 186.519,59.9791 190.5,60.5C 186.446,61.4956 182.446,61.1623 178.5,59.5 Z"/></g>
<g><path style="opacity:1" fill="#3eb7e8" d="M 154.5,63.5 C 148.833,63.5 143.167,63.5 137.5,63.5C 109.971,62.625 82.3039,62.125 54.5,62C 55.7375,62.2321 56.7375,62.7321 57.5,63.5C 55.8333,63.5 54.1667,63.5 52.5,63.5C 52.1667,63.5 51.8333,63.5 51.5,63.5C 49.7354,62.5386 47.7354,62.2053 45.5,62.5C 51.6942,61.3541 58.0275,60.1874 64.5,59C 94.7478,58.446 124.748,59.946 154.5,63.5 Z"/></g>
<g><path style="opacity:0.397" fill="#34b8fe" d="M 137.5,63.5 C 110.833,63.5 84.1667,63.5 57.5,63.5C 56.7375,62.7321 55.7375,62.2321 54.5,62C 82.3039,62.125 109.971,62.625 137.5,63.5 Z"/></g>
</svg>
